<?xml version="1.0" encoding="utf-8"?>
<!-- Generator: Adobe Illustrator 19.0.0, SVG Export Plug-In . SVG Version: 6.00 Build 0)  -->
<svg version="1.1" id="Capa_1" xmlns="http://www.w3.org/2000/svg" xmlns:xlink="http://www.w3.org/1999/xlink" x="0px" y="0px"
	 viewBox="-207 392.9 181 57" style="enable-background:new -207 392.9 181 57;" xml:space="preserve">
<style type="text/css">
	.st0{fill:#FF802B;}
</style>
<path class="st0" d="M-31.1,431.2l-2.2-4.9h-8l-2.2,4.9h-3.9l10.2-21h0.2l10.3,21H-31.1L-31.1,431.2z M-37.3,417.5l-2.8,6.3h5.7
	L-37.3,417.5L-37.3,417.5z M-56.3,410.2h4.1v21h-4.1V410.2L-56.3,410.2z M-70.6,431.8c-1.9,0-3.8-0.3-5.7-0.8v-3.7
	c2.1,1.1,4.3,1.7,6.1,1.7c2.2,0,3.9-1.2,3.9-3.1c0-1.6-1.3-2.5-4.4-3.8c-2.3-1-3.2-1.5-4-2.2c-1.2-1.1-1.8-2.3-1.8-3.9
	c0-3.5,2.9-5.7,7.5-5.7c1.7,0,3.6,0.4,5.2,0.9v3.6c-1.6-1.3-3.5-1.8-5.4-1.8c-2,0-3.3,1-3.3,2.5c0,1.7,1.5,2.3,4.2,3.4
	c4.1,1.8,5.8,3.3,5.9,6.4C-62.3,429.4-65.5,431.8-70.6,431.8L-70.6,431.8z M-93.8,410.2h4.1V428h8.1v3.2h-12.2V410.2L-93.8,410.2z
	 M-113.6,410.2h12.5v3.3h-8.3v5.2h7.6v3.3h-7.6v5.9h8.3v3.3h-12.5V410.2L-113.6,410.2z M-125.3,428.2c1.6,0,3.6-0.3,4.5-0.9l0.2,3.4
	c-1.5,0.4-3.1,0.7-4.7,0.7c-6.7,0-11.4-3.3-11.4-10.2c0-7,4.3-11,11.4-11c1.4,0,3.2,0.3,4.7,0.8l-0.4,3.5c-1.6-0.9-3-1.1-4.5-1.1
	c-4.3,0-7,3.2-6.9,7.5C-132.4,425.1-129.8,428.2-125.3,428.2L-125.3,428.2z M-171,449.2l22.3-31.8c0.1,1.2,0.3,2.4,0.3,3.7
	C-148.4,434.7-158.1,446.2-171,449.2L-171,449.2z M-176.7,449.9l5.6-57c6.1,1.4,11.4,4.7,15.4,9.2l-18.8,47.7
	C-175.3,449.8-176,449.9-176.7,449.9L-176.7,449.9z M-199.7,402.1c4-4.5,9.3-7.7,15.4-9.2l5.6,57c-0.8,0-1.5-0.1-2.2-0.1
	L-199.7,402.1L-199.7,402.1z M-207,421.1c0-1.2,0.1-2.5,0.3-3.7l22.3,31.8C-197.4,446.2-207,434.7-207,421.1L-207,421.1z
	 M-134.5,446.3V439h1v6.5h3.9v0.8H-134.5L-134.5,446.3z M-124.4,446.4c-0.5,0-0.7-0.2-0.7-0.8c-0.5,0.6-1.1,0.8-1.9,0.8
	c-1,0-1.8-0.4-1.8-1.5c0-1.2,0.9-1.5,1.8-1.6c1-0.2,1.8-0.1,1.8-0.8c0-0.8-0.6-0.9-1.2-0.9c-0.7,0-1.3,0.2-1.3,1h-0.9
	c0.1-1.3,1.1-1.8,2.3-1.8c1,0,2,0.2,2,1.4v2.7c0,0.4,0,0.6,0.3,0.6c0.1,0,0.2,0,0.3-0.1v0.7C-124,446.3-124.1,446.4-124.4,446.4
	L-124.4,446.4z M-125.2,443.5c-0.3,0.2-1,0.3-1.6,0.4c-0.6,0.1-1.1,0.3-1.1,1c0,0.6,0.5,0.8,1,0.8c1.2,0,1.6-0.7,1.6-1.2
	L-125.2,443.5L-125.2,443.5z M-119.2,443.9c0,0.9,0.5,1.7,1.7,1.7c0.7,0,1.2-0.3,1.4-1h0.9c-0.2,1.2-1.1,1.8-2.3,1.8
	c-1.7,0-2.5-1.2-2.6-2.8c0-1.6,1.1-2.7,2.5-2.7c1.9,0,2.5,1.7,2.4,3H-119.2L-119.2,443.9z M-117.6,441.6c-0.9,0-1.5,0.7-1.5,1.5h3.1
	C-116.1,442.3-116.8,441.6-117.6,441.6L-117.6,441.6z M-110.4,446.3v-3.6c0-0.6-0.4-1.1-1.1-1.1c-1.1,0-1.6,0.7-1.6,1.7v3h-0.9V441
	h0.8v0.8l0,0c0.4-0.7,1-1,1.7-1c1.4,0,1.8,0.8,1.8,1.9v3.5h-0.7V446.3z M-107.4,443.9c0,0.9,0.5,1.7,1.7,1.7c0.7,0,1.2-0.3,1.4-1
	h0.9c-0.2,1.2-1.1,1.8-2.3,1.8c-1.7,0-2.5-1.2-2.6-2.8c0-1.6,1.1-2.7,2.5-2.7c1.9,0,2.5,1.7,2.4,3H-107.4L-107.4,443.9z
	 M-105.9,441.6c-0.9,0-1.5,0.7-1.5,1.5h3.1C-104.4,442.3-105,441.6-105.9,441.6L-105.9,441.6z M-101.4,443.9v2.3h-0.9v-5.3h0.8v1.1
	l0,0c0.4-0.8,1-1.3,2-1.2v0.9C-100.8,441.8-101.4,442.6-101.4,443.9L-101.4,443.9z M-96.4,448.4c-1,0-2.2-0.4-2.2-1.6h0.9
	c0,0.6,0.8,0.9,1.4,0.9c1.1,0,1.6-0.8,1.6-2v-0.3l0,0c-0.3,0.6-1,1-1.7,1c-1.6,0-2.4-1.2-2.4-2.7c0-1.2,0.6-2.8,2.5-2.8
	c0.7,0,1.3,0.3,1.6,0.9l0,0V441h0.8v4.8C-93.9,447.5-94.7,448.4-96.4,448.4L-96.4,448.4z M-96.3,441.6c-1.1,0-1.6,0.9-1.6,1.9
	s0.4,2,1.5,2c1.2,0,1.6-1.1,1.6-2C-94.8,442.6-95.2,441.6-96.3,441.6L-96.3,441.6z M-91.9,440.3h-0.7l0.9-1.5h1.1L-91.9,440.3
	L-91.9,440.3z M-91.5,446.3h-0.9V441h0.9V446.3L-91.5,446.3z M-85.9,446.4c-0.5,0-0.7-0.2-0.7-0.8c-0.5,0.6-1.1,0.8-1.9,0.8
	c-1,0-1.8-0.4-1.8-1.5c0-1.2,0.9-1.5,1.8-1.6c1-0.2,1.8-0.1,1.8-0.8c0-0.8-0.6-0.9-1.2-0.9c-0.7,0-1.3,0.2-1.3,1h-0.9
	c0.1-1.3,1.1-1.8,2.3-1.8c1,0,2,0.2,2,1.4v2.7c0,0.4,0,0.6,0.3,0.6c0.1,0,0.2,0,0.3-0.1v0.7C-85.4,446.3-85.6,446.4-85.9,446.4
	L-85.9,446.4z M-86.7,443.5c-0.3,0.2-1,0.3-1.6,0.4c-0.6,0.1-1.1,0.3-1.1,1c0,0.6,0.5,0.8,1,0.8c1.2,0,1.6-0.7,1.6-1.2L-86.7,443.5
	L-86.7,443.5z M-77.4,448.3v-2.7l0,0c-0.3,0.6-1,0.8-1.7,0.8c-1.6,0-2.5-1.3-2.5-2.8s0.8-2.7,2.4-2.7c0.5,0,1.3,0.2,1.7,0.8l0,0V441
	h0.9v7.3H-77.4L-77.4,448.3z M-79,441.6c-1.2,0-1.6,1-1.6,2s0.5,1.9,1.7,1.9c1.2,0,1.6-1,1.6-2C-77.3,442.6-77.8,441.6-79,441.6
	L-79,441.6z M-71.3,446.3v-0.8l0,0c-0.4,0.7-1,1-1.7,1c-1.4,0-1.8-0.8-1.8-1.9v-3.5h0.9v3.6c0,0.6,0.4,1.1,1.1,1.1
	c1.1,0,1.6-0.7,1.6-1.7v-3h0.9v5.3L-71.3,446.3L-71.3,446.3z M-68.3,443.9c0,0.9,0.5,1.7,1.7,1.7c0.7,0,1.2-0.3,1.4-1h0.9
	c-0.2,1.2-1.1,1.8-2.3,1.8c-1.7,0-2.5-1.2-2.6-2.8c0-1.6,1.1-2.7,2.5-2.7c1.9,0,2.5,1.7,2.4,3H-68.3L-68.3,443.9z M-66.8,441.6
	c-0.9,0-1.5,0.7-1.5,1.5h3.1C-65.3,442.3-65.9,441.6-66.8,441.6L-66.8,441.6z M-56.4,448.3v-2.7l0,0c-0.3,0.6-1,0.8-1.7,0.8
	c-1.6,0-2.5-1.3-2.5-2.8s0.8-2.7,2.4-2.7c0.6,0,1.3,0.2,1.7,0.8l0,0V441h0.9v7.3H-56.4L-56.4,448.3z M-58,441.6c-1.2,0-1.6,1-1.6,2
	s0.5,1.9,1.7,1.9s1.6-1,1.6-2C-56.3,442.6-56.8,441.6-58,441.6L-58,441.6z M-50.3,446.3v-0.8l0,0c-0.4,0.7-1,1-1.7,1
	c-1.4,0-1.8-0.8-1.8-1.9v-3.5h0.9v3.6c0,0.6,0.4,1.1,1.1,1.1c1.1,0,1.6-0.7,1.6-1.7v-3h0.9v5.3L-50.3,446.3L-50.3,446.3z
	 M-47.9,446.3V441h0.9v5.3H-47.9L-47.9,446.3z M-47.9,439h0.9v1.1h-0.9V439L-47.9,439z M-44.9,443.9c0,0.9,0.5,1.7,1.7,1.7
	c0.7,0,1.2-0.3,1.4-1h0.9c-0.2,1.2-1.1,1.8-2.3,1.8c-1.7,0-2.5-1.2-2.6-2.8c0-1.6,1.1-2.7,2.5-2.7c1.9,0,2.5,1.7,2.4,3H-44.9
	L-44.9,443.9z M-43.3,441.6c-0.9,0-1.5,0.7-1.5,1.5h3.1C-41.8,442.3-42.5,441.6-43.3,441.6L-43.3,441.6z M-38.8,443.9v2.3h-0.9v-5.3
	h0.8v1.1l0,0c0.4-0.8,1-1.3,2-1.2v0.9C-38.3,441.8-38.8,442.6-38.8,443.9L-38.8,443.9z M-35.4,443.9c0,0.9,0.5,1.7,1.7,1.7
	c0.7,0,1.2-0.3,1.4-1h0.9c-0.2,1.2-1.1,1.8-2.3,1.8c-1.7,0-2.5-1.2-2.6-2.8c0-1.6,1.1-2.7,2.5-2.7c1.9,0,2.5,1.7,2.4,3H-35.4
	L-35.4,443.9z M-33.9,441.6c-0.9,0-1.5,0.7-1.5,1.5h3.1C-32.4,442.3-33,441.6-33.9,441.6L-33.9,441.6z M-28.4,441.6
	c-0.5,0-1.1,0.1-1.1,0.7s0.9,0.7,1.7,0.9c0.9,0.2,1.7,0.5,1.7,1.5c0,1.3-1.2,1.7-2.3,1.7c-1.2,0-2.2-0.5-2.3-1.8h0.9
	c0,0.8,0.7,1,1.4,1c0.5,0,1.3-0.1,1.3-0.8s-0.9-0.8-1.7-1c-0.9-0.2-1.7-0.5-1.7-1.5c0-1.1,1.1-1.5,2-1.5c1.2,0,2.1,0.4,2.2,1.7h-0.9
	C-27.2,441.9-27.8,441.6-28.4,441.6L-28.4,441.6z"/>
</svg>
